<svg width="24" height="24" viewBox="0 0 24 24" fill="none" xmlns="http://www.w3.org/2000/svg">
<path d="M12.052 14.829L13.466 16.243L17.71 12L13.467 7.75696L12.053 9.17196L13.88 11H6.34299V13H13.88L12.052 14.829Z" fill="white"/>
<path fill-rule="evenodd" clip-rule="evenodd" d="M19.778 19.778C24.074 15.482 24.074 8.518 19.778 4.222C15.482 -0.0739999 8.518 -0.0739999 4.222 4.222C-0.0739999 8.518 -0.0739999 15.482 4.222 19.778C8.518 24.074 15.482 24.074 19.778 19.778ZM18.364 18.364C19.1997 17.5283 19.8627 16.5361 20.315 15.4442C20.7673 14.3522 21.0001 13.1819 21.0001 12C21.0001 10.8181 20.7673 9.64777 20.315 8.55583C19.8627 7.46389 19.1997 6.47173 18.364 5.636C17.5283 4.80027 16.5361 4.13733 15.4442 3.68503C14.3522 3.23274 13.1819 2.99994 12 2.99994C10.8181 2.99994 9.64777 3.23274 8.55583 3.68503C7.46389 4.13733 6.47173 4.80027 5.636 5.636C3.94816 7.32384 2.99994 9.61304 2.99994 12C2.99994 14.387 3.94816 16.6762 5.636 18.364C7.32384 20.0518 9.61304 21.0001 12 21.0001C14.387 21.0001 16.6762 20.0518 18.364 18.364Z" fill="white"/>
</svg>
