<svg width="35" height="35" viewBox="0 0 35 35" fill="none" xmlns="http://www.w3.org/2000/svg">
<path d="M8.02084 4.375C8.601 4.375 9.1574 4.60547 9.56764 5.0157C9.97787 5.42594 10.2083 5.98234 10.2083 6.5625V28.4375C10.2083 29.0177 9.97787 29.5741 9.56764 29.9843C9.1574 30.3945 8.601 30.625 8.02084 30.625H5.10417C4.52401 30.625 3.96761 30.3945 3.55738 29.9843C3.14714 29.5741 2.91667 29.0177 2.91667 28.4375V6.5625C2.91667 5.98234 3.14714 5.42594 3.55738 5.0157C3.96761 4.60547 4.52401 4.375 5.10417 4.375H8.02084ZM16.7708 4.375C17.351 4.375 17.9074 4.60547 18.3176 5.0157C18.7279 5.42594 18.9583 5.98234 18.9583 6.5625V28.4375C18.9583 29.0177 18.7279 29.5741 18.3176 29.9843C17.9074 30.3945 17.351 30.625 16.7708 30.625H13.8542C13.274 30.625 12.7176 30.3945 12.3074 29.9843C11.8971 29.5741 11.6667 29.0177 11.6667 28.4375V6.5625C11.6667 5.98234 11.8971 5.42594 12.3074 5.0157C12.7176 4.60547 13.274 4.375 13.8542 4.375H16.7708ZM27.389 8.93083L32.076 27.1877C32.1475 27.466 32.1634 27.7556 32.123 28.04C32.0825 28.3244 31.9864 28.5981 31.8401 28.8454C31.6939 29.0927 31.5003 29.3087 31.2706 29.4812C31.0408 29.6537 30.7793 29.7792 30.501 29.8506L27.7652 30.5506C27.4869 30.6221 27.1973 30.638 26.9129 30.5975C26.6285 30.5571 26.3548 30.4609 26.1075 30.3147C25.8602 30.1684 25.6442 29.9749 25.4717 29.7451C25.2992 29.5154 25.1737 29.2539 25.1023 28.9756L20.4152 10.7246C20.3438 10.4463 20.3278 10.1567 20.3683 9.87227C20.4088 9.58784 20.5049 9.31418 20.6511 9.0669C20.7974 8.81962 20.9909 8.60357 21.2207 8.43109C21.4505 8.25861 21.7119 8.13308 21.9902 8.06167L24.726 7.35729C25.0043 7.28584 25.2939 7.26989 25.5784 7.31037C25.8628 7.35086 26.1365 7.44697 26.3837 7.59323C26.631 7.73948 26.8471 7.93301 27.0195 8.16277C27.192 8.39253 27.3176 8.65256 27.389 8.93083Z" fill="#A6A6A6"/>
</svg>
