<svg width="35" height="35" viewBox="0 0 35 35" fill="none" xmlns="http://www.w3.org/2000/svg">
<g clip-path="url(#clip0_142_7)">
<path d="M28.4375 1.38136e-07H6.5625C5.70065 -0.000176706 4.84721 0.169447 4.05093 0.499181C3.25465 0.828914 2.53114 1.3123 1.92172 1.92172C1.3123 2.53114 0.828914 3.25465 0.499181 4.05093C0.169447 4.84721 -0.000176706 5.70065 1.38136e-07 6.5625V28.4375C-0.000176706 29.2993 0.169447 30.1528 0.499181 30.9491C0.828914 31.7453 1.3123 32.4689 1.92172 33.0783C2.53114 33.6877 3.25465 34.1711 4.05093 34.5008C4.84721 34.8306 5.70065 35.0002 6.5625 35H28.4375C29.2993 35.0002 30.1528 34.8306 30.9491 34.5008C31.7453 34.1711 32.4689 33.6877 33.0783 33.0783C33.6877 32.4689 34.1711 31.7453 34.5008 30.9491C34.8306 30.1528 35.0002 29.2993 35 28.4375V6.5625C35.0002 5.70065 34.8306 4.84721 34.5008 4.05093C34.1711 3.25465 33.6877 2.53114 33.0783 1.92172C32.4689 1.3123 31.7453 0.828914 30.9491 0.499181C30.1528 0.169447 29.2993 -0.000176706 28.4375 1.38136e-07ZM23.7731 18.6537L15.3879 25.3158C15.1874 25.4158 14.9647 25.4634 14.7408 25.4539C14.5169 25.4445 14.2991 25.3785 14.1077 25.2619C13.9148 25.1497 13.754 24.9897 13.6408 24.7973C13.5277 24.6049 13.4659 24.3866 13.4615 24.1635V10.8379C13.4615 10.3883 13.7173 9.97096 14.1063 9.73808C14.2981 9.62176 14.5162 9.55594 14.7404 9.54676C14.9645 9.53757 15.1872 9.58534 15.3879 9.68558L23.7731 16.3463C24.2254 16.7462 24.496 17.0113 24.496 17.5C24.496 17.9887 24.1783 18.274 23.7731 18.6537Z" fill="#7E7E7E"/>
</g>
<defs>
<clipPath id="clip0_142_7">
<rect width="35" height="35" fill="white"/>
</clipPath>
</defs>
</svg>
