<svg width="29" height="29" viewBox="0 0 29 29" fill="none" xmlns="http://www.w3.org/2000/svg">
<path d="M19.3575 21.2788C17.1723 22.9749 14.4228 23.7746 11.6688 23.515C8.91475 23.2554 6.36315 21.9561 4.53337 19.8814C2.70358 17.8068 1.73317 15.1129 1.81965 12.348C1.90614 9.5831 3.04302 6.95508 4.99888 4.99888C6.95508 3.04302 9.5831 1.90614 12.348 1.81965C15.1129 1.73317 17.8068 2.70358 19.8814 4.53337C21.9561 6.36315 23.2554 8.91475 23.515 11.6688C23.7746 14.4228 22.9749 17.1723 21.2788 19.3575L26.7887 24.8675C26.9677 25.0337 27.0985 25.245 27.1674 25.4793C27.2363 25.7135 27.2407 25.962 27.1803 26.1986C27.1198 26.4352 26.9966 26.6511 26.8237 26.8235C26.6508 26.9959 26.4346 27.1186 26.1979 27.1784C25.9616 27.2388 25.7134 27.2345 25.4793 27.1659C25.2452 27.0974 25.0339 26.9671 24.8675 26.7887L19.3575 21.2788ZM20.8438 12.6875C20.8599 11.6065 20.6609 10.5332 20.2584 9.5298C19.8558 8.52644 19.2578 7.61314 18.4991 6.84302C17.7404 6.0729 16.8361 5.46133 15.8388 5.0439C14.8416 4.62646 13.7713 4.41149 12.6902 4.41149C11.6091 4.41149 10.5388 4.62646 9.54159 5.0439C8.54435 5.46133 7.64006 6.0729 6.88134 6.84302C6.12262 7.61314 5.5246 8.52644 5.12208 9.5298C4.71956 10.5332 4.52057 11.6065 4.53669 12.6875C4.56862 14.8289 5.44169 16.8718 6.9673 18.3748C8.49292 19.8778 10.5486 20.7204 12.6902 20.7204C14.8319 20.7204 16.8875 19.8778 18.4131 18.3748C19.9387 16.8718 20.8118 14.8289 20.8438 12.6875Z" fill="#A6A6A6"/>
</svg>
